<svg xmlns="http://www.w3.org/2000/svg" xmlns:xlink="http://www.w3.org/1999/xlink" xmlns:lucid="lucid" width="1197.98" height="861"><g transform="translate(-489.75469249732794 1478.5)" lucid:page-tab-id="0_0"><path d="M928.75-1115a5 5 0 0 1 5-5H1255a5 5 0 0 1 5 5v492a5 5 0 0 1-5 5H933.75a5 5 0 0 1-5-5z" fill="#fff"/><path d="M928.75-1080v-35a5 5 0 0 1 5-5H1255a5 5 0 0 1 5 5v35" fill="#ccc"/><path d="M928.75-1080v34H1260v-34" fill="#fff"/><path d="M928.75-1047v34H1260v-34" fill="#e6e6e6"/><path d="M928.75-1014v34H1260v-34" fill="#fff"/><path d="M928.75-981v34H1260v-34" fill="#e6e6e6"/><path d="M928.75-948v34H1260v-34" fill="#fff"/><path d="M928.75-915v34H1260v-34" fill="#e6e6e6"/><path d="M928.75-882v34H1260v-34" fill="#fff"/><path d="M928.75-849v34H1260v-34" fill="#e6e6e6"/><path d="M928.75-816v34H1260v-34" fill="#fff"/><path d="M928.75-783v34H1260v-34" fill="#e6e6e6"/><path d="M928.75-750v34H1260v-34" fill="#fff"/><path d="M928.75-717v34H1260v-34" fill="#e6e6e6"/><path d="M928.75-684v34H1260v-34" fill="#fff"/><path d="M928.75-651v28a5 5 0 0 0 5 5H1255a5 5 0 0 0 5-5v-28" fill="#e6e6e6"/><path d="M928.75-1080H1260M928.75-1115a5 5 0 0 1 5-5H1255a5 5 0 0 1 5 5v492a5 5 0 0 1-5 5H933.75a5 5 0 0 1-5-5zM988.75-1080v462M1124.37-1080v462" stroke="#000" fill="none"/><use xlink:href="#a" transform="matrix(1,0,0,1,938.7453985879431,-1120) translate(143.0671875 27.61432291666667)"/><use xlink:href="#b" transform="matrix(1,0,0,1,933.7453985879431,-1077.5) translate(14.03072265625 20.089501953125)"/><use xlink:href="#c" transform="matrix(1,0,0,1,993.7453985879431,-1077.5) translate(11.2 21.61432291666667)"/><use xlink:href="#d" transform="matrix(1,0,0,1,1129.3726992939714,-1077.5) translate(0 20.089501953125)"/><use xlink:href="#e" transform="matrix(1,0,0,1,993.7453985879431,-1044.5) translate(11.2 21.61432291666667)"/><use xlink:href="#f" transform="matrix(1,0,0,1,1129.3726992939714,-1044.5) translate(0 20.089501953125)"/><use xlink:href="#g" transform="matrix(1,0,0,1,993.7453985879431,-1011.5) translate(11.2 21.61432291666667)"/><use xlink:href="#f" transform="matrix(1,0,0,1,1129.3726992939714,-1011.5) translate(0 20.089501953125)"/><use xlink:href="#h" transform="matrix(1,0,0,1,993.7453985879431,-978.5) translate(11.2 21.61432291666667)"/><use xlink:href="#i" transform="matrix(1,0,0,1,1129.3726992939714,-978.5) translate(0 20.089501953125)"/><use xlink:href="#j" transform="matrix(1,0,0,1,993.7453985879431,-945.5) translate(11.2 21.61432291666667)"/><use xlink:href="#k" transform="matrix(1,0,0,1,1129.3726992939714,-945.5) translate(0 20.089501953125)"/><use xlink:href="#l" transform="matrix(1,0,0,1,993.7453985879431,-912.5) translate(11.2 21.61432291666667)"/><use xlink:href="#i" transform="matrix(1,0,0,1,1129.3726992939714,-912.5) translate(0 20.089501953125)"/><use xlink:href="#m" transform="matrix(1,0,0,1,993.7453985879431,-879.5) translate(11.2 21.61432291666667)"/><use xlink:href="#i" transform="matrix(1,0,0,1,1129.3726992939714,-879.5) translate(0 20.089501953125)"/><use xlink:href="#n" transform="matrix(1,0,0,1,993.7453985879431,-846.5) translate(11.2 21.61432291666667)"/><use xlink:href="#k" transform="matrix(1,0,0,1,1129.3726992939714,-846.5) translate(0 20.089501953125)"/><use xlink:href="#o" transform="matrix(1,0,0,1,993.7453985879431,-813.5) translate(11.2 21.61432291666667)"/><use xlink:href="#p" transform="matrix(1,0,0,1,1129.3726992939714,-813.5) translate(0 20.089501953125)"/><use xlink:href="#q" transform="matrix(1,0,0,1,933.7453985879431,-780.5) translate(14.435327148437498 20.089501953125)"/><use xlink:href="#r" transform="matrix(1,0,0,1,993.7453985879431,-780.5) translate(11.2 21.61432291666667)"/><use xlink:href="#s" transform="matrix(1,0,0,1,1129.3726992939714,-780.5) translate(0 20.089501953125)"/><use xlink:href="#q" transform="matrix(1,0,0,1,933.7453985879431,-747.5) translate(14.435327148437498 20.089501953125)"/><use xlink:href="#t" transform="matrix(1,0,0,1,993.7453985879431,-747.5) translate(11.2 21.61432291666667)"/><use xlink:href="#s" transform="matrix(1,0,0,1,1129.3726992939714,-747.5) translate(0 20.089501953125)"/><use xlink:href="#q" transform="matrix(1,0,0,1,933.7453985879431,-714.5) translate(14.435327148437498 20.089501953125)"/><use xlink:href="#u" transform="matrix(1,0,0,1,993.7453985879431,-714.5) translate(11.2 21.61432291666667)"/><use xlink:href="#s" transform="matrix(1,0,0,1,1129.3726992939714,-714.5) translate(0 20.089501953125)"/><use xlink:href="#q" transform="matrix(1,0,0,1,933.7453985879431,-681.5) translate(14.435327148437498 20.089501953125)"/><use xlink:href="#v" transform="matrix(1,0,0,1,993.7453985879431,-681.5) translate(11.2 21.61432291666667)"/><use xlink:href="#s" transform="matrix(1,0,0,1,1129.3726992939714,-681.5) translate(0 20.089501953125)"/><use xlink:href="#q" transform="matrix(1,0,0,1,933.7453985879431,-648.5) translate(14.435327148437498 20.089501953125)"/><use xlink:href="#w" transform="matrix(1,0,0,1,993.7453985879431,-648.5) translate(11.2 21.61432291666667)"/><use xlink:href="#s" transform="matrix(1,0,0,1,1129.3726992939714,-648.5) translate(0 20.089501953125)"/><path d="M928.75-1473a5 5 0 0 1 5-5H1255a5 5 0 0 1 5 5v261a5 5 0 0 1-5 5H933.75a5 5 0 0 1-5-5z" fill="#fff"/><path d="M928.75-1438v-35a5 5 0 0 1 5-5H1255a5 5 0 0 1 5 5v35" fill="#ccc"/><path d="M928.75-1438v34H1260v-34" fill="#fff"/><path d="M928.75-1405v34H1260v-34" fill="#e6e6e6"/><path d="M928.75-1372v34H1260v-34" fill="#fff"/><path d="M928.75-1339v34H1260v-34" fill="#e6e6e6"/><path d="M928.75-1306v34H1260v-34" fill="#fff"/><path d="M928.75-1273v34H1260v-34" fill="#e6e6e6"/><path d="M928.75-1240v28a5 5 0 0 0 5 5H1255a5 5 0 0 0 5-5v-28" fill="#fff"/><path d="M928.75-1438H1260M928.75-1473a5 5 0 0 1 5-5H1255a5 5 0 0 1 5 5v261a5 5 0 0 1-5 5H933.75a5 5 0 0 1-5-5zM988.75-1438v231M1124.37-1438v231" stroke="#000" fill="none"/><use xlink:href="#x" transform="matrix(1,0,0,1,938.7453985879432,-1478) translate(132.57643229166666 27.61432291666667)"/><use xlink:href="#b" transform="matrix(1,0,0,1,933.7453985879432,-1435.5) translate(14.03072265625 20.089501953125)"/><use xlink:href="#c" transform="matrix(1,0,0,1,993.7453985879432,-1435.5) translate(11.2 21.61432291666667)"/><use xlink:href="#d" transform="matrix(1,0,0,1,1129.3726992939714,-1435.5) translate(0 20.089501953125)"/><use xlink:href="#y" transform="matrix(1,0,0,1,993.7453985879432,-1402.5) translate(11.2 21.61432291666667)"/><use xlink:href="#f" transform="matrix(1,0,0,1,1129.3726992939714,-1402.5) translate(0 20.089501953125)"/><use xlink:href="#z" transform="matrix(1,0,0,1,933.7453985879432,-1369.5) translate(13.14794921875 20.089501953125)"/><use xlink:href="#A" transform="matrix(1,0,0,1,993.7453985879432,-1369.5) translate(11.2 21.61432291666667)"/><use xlink:href="#f" transform="matrix(1,0,0,1,1129.3726992939714,-1369.5) translate(0 20.089501953125)"/><use xlink:href="#B" transform="matrix(1,0,0,1,993.7453985879432,-1336.5) translate(11.2 21.61432291666667)"/><use xlink:href="#f" transform="matrix(1,0,0,1,1129.3726992939714,-1336.5) translate(0 20.089501953125)"/><use xlink:href="#C" transform="matrix(1,0,0,1,993.7453985879432,-1303.5) translate(11.2 21.61432291666667)"/><use xlink:href="#i" transform="matrix(1,0,0,1,1129.3726992939714,-1303.5) translate(0 20.089501953125)"/><use xlink:href="#D" transform="matrix(1,0,0,1,993.7453985879432,-1270.5) translate(11.2 21.61432291666667)"/><use xlink:href="#k" transform="matrix(1,0,0,1,1129.3726992939714,-1270.5) translate(0 20.089501953125)"/><use xlink:href="#E" transform="matrix(1,0,0,1,993.7453985879432,-1237.5) translate(11.2 21.61432291666667)"/><use xlink:href="#p" transform="matrix(1,0,0,1,1129.3726992939714,-1237.5) translate(0 20.089501953125)"/><path d="M531.25-1473a5 5 0 0 1 5-5h287.5a5 5 0 0 1 5 5v129a5 5 0 0 1-5 5h-287.5a5 5 0 0 1-5-5z" fill="#fff"/><path d="M531.25-1438v-35a5 5 0 0 1 5-5h287.5a5 5 0 0 1 5 5v35" fill="#ccc"/><path d="M531.25-1438v34h297.5v-34" fill="#fff"/><path d="M531.25-1405v34h297.5v-34" fill="#e6e6e6"/><path d="M531.25-1372v28a5 5 0 0 0 5 5h287.5a5 5 0 0 0 5-5v-28" fill="#fff"/><path d="M531.25-1438h297.5M531.25-1473a5 5 0 0 1 5-5h287.5a5 5 0 0 1 5 5v129a5 5 0 0 1-5 5h-287.5a5 5 0 0 1-5-5zM591.25-1438v99M710-1438v99" stroke="#000" fill="none"/><use xlink:href="#F" transform="matrix(1,0,0,1,541.2546014120568,-1478) translate(94.97434895833335 27.61432291666667)"/><use xlink:href="#b" transform="matrix(1,0,0,1,536.2546014120568,-1435.5) translate(14.03072265625 20.089501953125)"/><use xlink:href="#c" transform="matrix(1,0,0,1,596.2546014120568,-1435.5) translate(11.2 21.61432291666667)"/><use xlink:href="#d" transform="matrix(1,0,0,1,715,-1435.5) translate(0 20.089501953125)"/><use xlink:href="#y" transform="matrix(1,0,0,1,596.2546014120568,-1402.5) translate(11.2 21.61432291666667)"/><use xlink:href="#f" transform="matrix(1,0,0,1,715,-1402.5) translate(0 20.089501953125)"/><use xlink:href="#q" transform="matrix(1,0,0,1,536.2546014120568,-1369.5) translate(14.435327148437498 20.089501953125)"/><use xlink:href="#r" transform="matrix(1,0,0,1,596.2546014120568,-1369.5) translate(11.2 21.61432291666667)"/><use xlink:href="#s" transform="matrix(1,0,0,1,715,-1369.5) translate(0 20.089501953125)"/><path d="M531.25-898a5 5 0 0 1 5-5h287.5a5 5 0 0 1 5 5v129a5 5 0 0 1-5 5h-287.5a5 5 0 0 1-5-5z" fill="#fff"/><path d="M531.25-863v-35a5 5 0 0 1 5-5h287.5a5 5 0 0 1 5 5v35" fill="#ccc"/><path d="M531.25-863v34h297.5v-34" fill="#fff"/><path d="M531.25-830v34h297.5v-34" fill="#e6e6e6"/><path d="M531.25-797v28a5 5 0 0 0 5 5h287.5a5 5 0 0 0 5-5v-28" fill="#fff"/><path d="M531.25-863h297.5M531.25-898a5 5 0 0 1 5-5h287.5a5 5 0 0 1 5 5v129a5 5 0 0 1-5 5h-287.5a5 5 0 0 1-5-5zM591.25-863v99M710-863v99" stroke="#000" fill="none"/><use xlink:href="#G" transform="matrix(1,0,0,1,541.2546014120568,-903) translate(111.68125 27.61432291666667)"/><use xlink:href="#b" transform="matrix(1,0,0,1,536.2546014120568,-860.5) translate(14.03072265625 20.089501953125)"/><use xlink:href="#c" transform="matrix(1,0,0,1,596.2546014120568,-860.5) translate(11.2 21.61432291666667)"/><use xlink:href="#d" transform="matrix(1,0,0,1,715,-860.5) translate(0 20.089501953125)"/><use xlink:href="#y" transform="matrix(1,0,0,1,596.2546014120568,-827.5) translate(11.2 21.61432291666667)"/><use xlink:href="#H" transform="matrix(1,0,0,1,715,-827.5) translate(0 20.089501953125)"/><use xlink:href="#q" transform="matrix(1,0,0,1,536.2546014120568,-794.5) translate(14.435327148437498 20.089501953125)"/><use xlink:href="#r" transform="matrix(1,0,0,1,596.2546014120568,-794.5) translate(11.2 21.61432291666667)"/><use xlink:href="#s" transform="matrix(1,0,0,1,715,-794.5) translate(0 20.089501953125)"/><path d="M1348.74-1235a5 5 0 0 1 5-5h287.5a5 5 0 0 1 5 5v162a5 5 0 0 1-5 5h-287.5a5 5 0 0 1-5-5z" fill="#fff"/><path d="M1348.74-1200v-35a5 5 0 0 1 5-5h287.5a5 5 0 0 1 5 5v35" fill="#ccc"/><path d="M1348.74-1200v34h297.5v-34" fill="#fff"/><path d="M1348.74-1167v34h297.5v-34" fill="#e6e6e6"/><path d="M1348.74-1134v34h297.5v-34" fill="#fff"/><path d="M1348.74-1101v28a5 5 0 0 0 5 5h287.5a5 5 0 0 0 5-5v-28" fill="#e6e6e6"/><path d="M1348.74-1200h297.5M1348.74-1235a5 5 0 0 1 5-5h287.5a5 5 0 0 1 5 5v162a5 5 0 0 1-5 5h-287.5a5 5 0 0 1-5-5zM1408.74-1200v132M1527.5-1200v132" stroke="#000" fill="none"/><use xlink:href="#I" transform="matrix(1,0,0,1,1358.7453985879433,-1240) translate(91.628125 27.61432291666667)"/><use xlink:href="#b" transform="matrix(1,0,0,1,1353.7453985879433,-1197.5) translate(14.03072265625 20.089501953125)"/><use xlink:href="#c" transform="matrix(1,0,0,1,1413.7453985879433,-1197.5) translate(11.2 21.61432291666667)"/><use xlink:href="#d" transform="matrix(1,0,0,1,1532.4907971758867,-1197.5) translate(0 20.089501953125)"/><use xlink:href="#y" transform="matrix(1,0,0,1,1413.7453985879433,-1164.5) translate(11.2 21.61432291666667)"/><use xlink:href="#f" transform="matrix(1,0,0,1,1532.4907971758867,-1164.5) translate(0 20.089501953125)"/><use xlink:href="#q" transform="matrix(1,0,0,1,1353.7453985879433,-1131.5) translate(14.435327148437498 20.089501953125)"/><use xlink:href="#r" transform="matrix(1,0,0,1,1413.7453985879433,-1131.5) translate(11.2 21.61432291666667)"/><use xlink:href="#s" transform="matrix(1,0,0,1,1532.4907971758867,-1131.5) translate(0 20.089501953125)"/><use xlink:href="#q" transform="matrix(1,0,0,1,1353.7453985879433,-1098.5) translate(14.435327148437498 20.089501953125)"/><use xlink:href="#u" transform="matrix(1,0,0,1,1413.7453985879433,-1098.5) translate(11.2 21.61432291666667)"/><use xlink:href="#s" transform="matrix(1,0,0,1,1532.4907971758867,-1098.5) translate(0 20.089501953125)"/><path d="M1348.74-1473a5 5 0 0 1 5-5h287.5a5 5 0 0 1 5 5v129a5 5 0 0 1-5 5h-287.5a5 5 0 0 1-5-5z" fill="#fff"/><path d="M1348.74-1438v-35a5 5 0 0 1 5-5h287.5a5 5 0 0 1 5 5v35" fill="#ccc"/><path d="M1348.74-1438v34h297.5v-34" fill="#fff"/><path d="M1348.74-1405v34h297.5v-34" fill="#e6e6e6"/><path d="M1348.74-1372v28a5 5 0 0 0 5 5h287.5a5 5 0 0 0 5-5v-28" fill="#fff"/><path d="M1348.74-1438h297.5M1348.74-1473a5 5 0 0 1 5-5h287.5a5 5 0 0 1 5 5v129a5 5 0 0 1-5 5h-287.5a5 5 0 0 1-5-5zM1408.74-1438v99M1527.5-1438v99" stroke="#000" fill="none"/><use xlink:href="#J" transform="matrix(1,0,0,1,1358.7453985879433,-1478) translate(117.73190104166667 27.61432291666667)"/><use xlink:href="#b" transform="matrix(1,0,0,1,1353.7453985879433,-1435.5) translate(14.03072265625 20.089501953125)"/><use xlink:href="#c" transform="matrix(1,0,0,1,1413.7453985879433,-1435.5) translate(11.2 21.61432291666667)"/><use xlink:href="#d" transform="matrix(1,0,0,1,1532.4907971758867,-1435.5) translate(0 20.089501953125)"/><use xlink:href="#y" transform="matrix(1,0,0,1,1413.7453985879433,-1402.5) translate(11.2 21.61432291666667)"/><use xlink:href="#f" transform="matrix(1,0,0,1,1532.4907971758867,-1402.5) translate(0 20.089501953125)"/><use xlink:href="#q" transform="matrix(1,0,0,1,1353.7453985879433,-1369.5) translate(14.435327148437498 20.089501953125)"/><use xlink:href="#r" transform="matrix(1,0,0,1,1413.7453985879433,-1369.5) translate(11.2 21.61432291666667)"/><use xlink:href="#s" transform="matrix(1,0,0,1,1532.4907971758867,-1369.5) translate(0 20.089501953125)"/><path d="M508.75-1235a5 5 0 0 1 5-5h310a5 5 0 0 1 5 5v228a5 5 0 0 1-5 5h-310a5 5 0 0 1-5-5z" fill="#fff"/><path d="M508.75-1200v-35a5 5 0 0 1 5-5h310a5 5 0 0 1 5 5v35" fill="#ccc"/><path d="M508.75-1200v34h320v-34" fill="#fff"/><path d="M508.75-1167v34h320v-34" fill="#e6e6e6"/><path d="M508.75-1134v34h320v-34" fill="#fff"/><path d="M508.75-1101v34h320v-34" fill="#e6e6e6"/><path d="M508.75-1068v34h320v-34" fill="#fff"/><path d="M508.75-1035v28a5 5 0 0 0 5 5h310a5 5 0 0 0 5-5v-28" fill="#e6e6e6"/><path d="M508.75-1200h320M508.75-1235a5 5 0 0 1 5-5h310a5 5 0 0 1 5 5v228a5 5 0 0 1-5 5h-310a5 5 0 0 1-5-5zM568.75-1200v198M698.75-1200v198" stroke="#000" fill="none"/><use xlink:href="#K" transform="matrix(1,0,0,1,518.7453985879432,-1240) translate(104.21848958333334 27.61432291666667)"/><use xlink:href="#b" transform="matrix(1,0,0,1,513.7453985879432,-1197.5) translate(14.03072265625 20.089501953125)"/><use xlink:href="#c" transform="matrix(1,0,0,1,573.7453985879432,-1197.5) translate(11.2 21.61432291666667)"/><use xlink:href="#d" transform="matrix(1,0,0,1,703.7453985879432,-1197.5) translate(0 20.089501953125)"/><use xlink:href="#L" transform="matrix(1,0,0,1,573.7453985879432,-1164.5) translate(11.2 21.61432291666667)"/><use xlink:href="#i" transform="matrix(1,0,0,1,703.7453985879432,-1164.5) translate(0 20.089501953125)"/><use xlink:href="#D" transform="matrix(1,0,0,1,573.7453985879432,-1131.5) translate(11.2 21.61432291666667)"/><use xlink:href="#k" transform="matrix(1,0,0,1,703.7453985879432,-1131.5) translate(0 20.089501953125)"/><use xlink:href="#E" transform="matrix(1,0,0,1,573.7453985879432,-1098.5) translate(11.2 21.61432291666667)"/><use xlink:href="#p" transform="matrix(1,0,0,1,703.7453985879432,-1098.5) translate(0 20.089501953125)"/><use xlink:href="#q" transform="matrix(1,0,0,1,513.7453985879432,-1065.5) translate(14.435327148437498 20.089501953125)"/><use xlink:href="#r" transform="matrix(1,0,0,1,573.7453985879432,-1065.5) translate(11.2 21.61432291666667)"/><use xlink:href="#s" transform="matrix(1,0,0,1,703.7453985879432,-1065.5) translate(0 20.089501953125)"/><use xlink:href="#q" transform="matrix(1,0,0,1,513.7453985879432,-1032.5) translate(14.435327148437498 20.089501953125)"/><use xlink:href="#t" transform="matrix(1,0,0,1,573.7453985879432,-1032.5) translate(11.2 21.61432291666667)"/><use xlink:href="#s" transform="matrix(1,0,0,1,703.7453985879432,-1032.5) translate(0 20.089501953125)"/><path d="M1280.5-1421.5h27.74M1260.5-1421.5h20m0 10v-20" stroke="#5e5e5e" stroke-width="2" fill="none"/><path d="M1347.8-1421.5h-20m20-10l-20 10m20 10l-20-10m0 0c0 5.52-4.48 10-10 10s-10-4.48-10-10 4.48-10 10-10 10 4.48 10 10z" stroke="#5e5e5e" stroke-width="2" fill="#fff"/><path d="M908.25-1421.5h-39M928.25-1421.5h-20m0-10v20" stroke="#5e5e5e" stroke-width="2" fill="none"/><path d="M829.7-1421.5h20m-20 10l20-10m-20-10l20 10m20 0c0 5.52-4.48 10-10 10-5.53 0-10-4.48-10-10s4.47-10 10-10c5.52 0 10 4.48 10 10z" stroke="#5e5e5e" stroke-width="2" fill="#fff"/><path d="M1497.5-1318.5v38M1497.5-1338.5v20m-10 0h20" stroke="#5e5e5e" stroke-width="2" fill="none"/><path d="M1497.5-1240.95v-20m10 20l-10-20m-10 20l10-20m10-10c0 5.53-4.5 10-10 10-5.53 0-10-4.47-10-10 0-5.52 4.47-10 10-10 5.5 0 10 4.48 10 10z" stroke="#5e5e5e" stroke-width="2" fill="#fff"/><path d="M680-1318.5v38M680-1338.5v20m-10 0h20" stroke="#5e5e5e" stroke-width="2" fill="none"/><path d="M680-1240.95v-20m10 20l-10-20m-10 20l10-20m10-10c0 5.53-4.48 10-10 10s-10-4.47-10-10c0-5.52 4.48-10 10-10s10 4.48 10 10z" stroke="#5e5e5e" stroke-width="2" fill="#fff"/><path d="M908.25-1388.5h-23.5a6 6 0 0 0-6 6v156.5a6 6 0 0 1-6 6h-3.5M928.25-1388.5h-20m0-10v20" stroke="#5e5e5e" stroke-width="2" fill="none"/><path d="M829.7-1220h20m-20 10l20-10m-20-10l20 10m20 0c0 5.52-4.5 10-10 10-5.53 0-10-4.48-10-10s4.47-10 10-10c5.5 0 10 4.48 10 10z" stroke="#5e5e5e" stroke-width="2" fill="#fff"/><path d="M1280.5-1388.5h17.87a6 6 0 0 1 6 6v158.63a3.87 3.87 0 0 0 3.88 3.87M1260.5-1388.5h20m0 10v-20" stroke="#5e5e5e" stroke-width="2" fill="none"/><path d="M1347.8-1220h-20m20-10l-20 10m20 10l-20-10m0 0c0 5.52-4.48 10-10 10s-10-4.48-10-10 4.48-10 10-10 10 4.48 10 10z" stroke="#5e5e5e" stroke-width="2" fill="#fff"/><path d="M908.25-1355.5H906a6 6 0 0 0-6 6V-889a6 6 0 0 1-6 6h-24.75M928.25-1355.5h-20m0-10v20" stroke="#5e5e5e" stroke-width="2" fill="none"/><path d="M829.7-883h20m-20 10l20-10m-20-10l20 10m20 0c0 5.52-4.5 10-10 10-5.53 0-10-4.48-10-10s4.47-10 10-10c5.5 0 10 4.48 10 10z" stroke="#5e5e5e" stroke-width="2" fill="#fff"/><path d="M1094.37-1186.5v26M1094.37-1206.5v20m-10 0h20" stroke="#5e5e5e" stroke-width="2" fill="none"/><path d="M1094.37-1120.95v-20m10 20l-10-20m-10 20l10-20m10-10c0 5.53-4.47 10-10 10-5.52 0-10-4.47-10-10 0-5.52 4.48-10 10-10 5.53 0 10 4.48 10 10z" stroke="#5e5e5e" stroke-width="2" fill="#fff"/><path d="M868.25-846.5h4.5a6 6 0 0 1 6 6v2a6 6 0 0 0 6 6h3.5" stroke="#5e5e5e" stroke-width="2" fill="none"/><path d="M829.25-846.5h20m-10 10v-20m30 10c0 5.52-4.48 10-10 10-5.53 0-10-4.48-10-10s4.47-10 10-10c5.52 0 10 4.48 10 10zM927.8-832.5h-20m20-10l-20 10m20 10l-20-10m0 0c0 5.52-4.48 10-10 10s-10-4.48-10-10 4.48-10 10-10 10 4.48 10 10z" stroke="#5e5e5e" stroke-width="2" fill="#fff"/><path d="M1685.74-1355.5a1 1 0 0 1 1 1v384a6 6 0 0 1-6 6H1300.5" stroke="#5e5e5e" stroke-width="2" fill="none"/><path d="M1646.74-1355.5h20m-10 10v-20m30 10c0 5.52-4.48 10-10 10-5.53 0-10-4.48-10-10s4.47-10 10-10c5.52 0 10 4.48 10 10zM1260.95-964.5h20m-20 10l20-10m-20-10l20 10m20 0c0 5.52-4.48 10-10 10-5.53 0-10-4.48-10-10s4.47-10 10-10c5.52 0 10 4.48 10 10z" stroke="#5e5e5e" stroke-width="2" fill="#fff"/><path d="M491.75-1355.5a1 1 0 0 0-1 1v681a6 6 0 0 0 6 6h391.5" stroke="#5e5e5e" stroke-width="2" fill="none"/><path d="M530.75-1355.5h-20m10-10v20m-10-10c0 5.52-4.47 10-10 10-5.52 0-10-4.48-10-10s4.48-10 10-10c5.53 0 10 4.48 10 10zM927.8-667.5h-20m20-10l-20 10m20 10l-20-10m0 0c0 5.52-4.48 10-10 10s-10-4.48-10-10 4.48-10 10-10 10 4.48 10 10z" stroke="#5e5e5e" stroke-width="2" fill="#fff"/><path d="M1309.24-1100.7h-4.52a.35.35 0 0 0-.35.35.35.35 0 0 1-.35.35h-3.52" stroke="#5e5e5e" stroke-width="2" fill="none"/><path d="M1348.24-1100.7h-20m10-10v20m-10-10c0 5.53-4.47 10-10 10-5.52 0-10-4.47-10-10 0-5.52 4.48-10 10-10 5.53 0 10 4.48 10 10zM1260.95-1100h20m-20 10l20-10m-20-10l20 10m20 0c0 5.52-4.48 10-10 10-5.53 0-10-4.48-10-10s4.47-10 10-10c5.52 0 10 4.48 10 10z" stroke="#5e5e5e" stroke-width="2" fill="#fff"/><defs><path d="M180 0v-1490h528c311 0 458 177 458 395 0 191-114 278-244 313v14c139 9 302 137 302 371 0 225-148 397-499 397H180zm190-168h350c232 0 321-102 321-231 0-149-120-277-311-277H370v508zm0-668h328c160 0 286-101 286-255 0-129-87-231-280-231H370v486" id="M"/><path d="M628 24c-324 0-524-230-524-574 0-343 198-582 503-582 237 0 487 146 487 559v75H286c9 234 145 362 343 362 132 0 231-58 273-172l174 48C1024-91 857 24 628 24zM287-650h624c-17-190-120-322-304-322-192 0-309 151-320 322" id="N"/><path d="M598-1118v154H368v674c0 100 37 144 132 144 23 0 62-6 92-12L629-6c-37 13-88 20-134 20-193 0-307-107-307-290v-688H20v-154h168v-266h180v266h230" id="O"/><g id="a"><use transform="matrix(0.008072916666666667,0,0,0.008072916666666667,0,0)" xlink:href="#M"/><use transform="matrix(0.008072916666666667,0,0,0.008072916666666667,10.817708333333334,0)" xlink:href="#N"/><use transform="matrix(0.008072916666666667,0,0,0.008072916666666667,20.456770833333337,0)" xlink:href="#O"/></g><path d="M180 0v-1490h510c348 0 508 209 508 474 0 266-160 477-507 477H370V0H180zm190-706h312c236 0 327-133 327-310 0-176-91-307-329-307H370v617" id="P"/><path d="M180 0v-1490h190c0 262 1 526-3 784 217-279 467-523 702-784h249L716-845 1319 0h-225L585-716 370-489V0H180" id="Q"/><g id="b"><use transform="matrix(0.008173828125000001,0,0,0.008173828125000001,0,0)" xlink:href="#P"/><use transform="matrix(0.008173828125000001,0,0,0.008173828125000001,10.691367187500001,0)" xlink:href="#Q"/></g><path d="M158 0v-1118h180V0H158zm91-1301c-68 0-125-53-125-119s57-119 125-119c69 0 126 53 126 119s-57 119-126 119" id="R"/><path d="M577 24c-279 0-473-224-473-580 0-354 195-576 474-576 218 0 287 134 324 193h14v-551h180V0H922v-173h-20C865-111 790 24 577 24zm27-161c203 0 314-172 314-421 0-247-108-413-314-413-212 0-317 181-317 413 0 235 108 421 317 421" id="S"/><g id="c"><use transform="matrix(0.008072916666666667,0,0,0.008072916666666667,0,0)" xlink:href="#R"/><use transform="matrix(0.008072916666666667,0,0,0.008072916666666667,4.004166666666667,0)" xlink:href="#S"/></g><path d="M677 24c-213 0-288-135-325-197h-20V0H158v-1490h180v551h14c37-59 106-193 324-193 279 0 474 222 474 576 0 356-194 580-473 580zm-27-161c209 0 317-186 317-421 0-232-105-413-317-413-206 0-314 166-314 413 0 249 111 421 314 421" id="T"/><path d="M611 442c-248 0-391-105-460-228l146-94c47 65 117 165 314 165 178 0 307-82 307-266v-224h-17C863-141 792-18 576-18c-268 0-472-195-472-546 0-346 197-568 476-568 216 0 288 133 326 193h17v-179h175V29c0 289-215 413-487 413zm-5-620c203 0 314-146 314-390 0-237-108-403-314-403-213 0-319 180-319 403 0 230 109 390 319 390" id="U"/><path d="M538 24C308 24 148-78 108-271l171-41c32 123 123 178 257 178 156 0 256-77 256-169 0-77-54-128-164-154l-186-44c-203-48-300-148-300-305 0-192 176-326 414-326 230 0 351 112 402 269l-163 42c-31-80-94-158-238-158-133 0-233 69-233 162 0 83 57 129 188 160l169 40c203 48 298 149 298 302 0 196-179 339-441 339" id="V"/><path d="M158 0v-1118h174v172h12c41-113 157-188 290-188 26 0 70 2 91 3v181c-11-2-60-10-108-10-161 0-279 109-279 260V0H158" id="W"/><path d="M471 26C259 26 90-98 90-318c0-256 228-303 435-329 202-27 287-16 287-108 0-139-79-219-234-219-161 0-248 86-283 164l-173-57c86-203 278-265 451-265 150 0 419 46 419 395V0H815v-152h-12C765-73 660 26 471 26zm31-159c199 0 310-134 310-271v-155c-30 35-226 55-295 64-131 17-246 59-246 186 0 116 97 176 231 176" id="X"/><path d="M338-1490V0H158v-1490h180" id="Y"/><g id="d"><use transform="matrix(0.008173828125000001,0,0,0.008173828125000001,0,0)" xlink:href="#T"/><use transform="matrix(0.008173828125000001,0,0,0.008173828125000001,10.249980468750001,0)" xlink:href="#R"/><use transform="matrix(0.008173828125000001,0,0,0.008173828125000001,14.304199218750002,0)" xlink:href="#U"/><use transform="matrix(0.008173828125000001,0,0,0.008173828125000001,24.570527343750005,0)" xlink:href="#V"/><use transform="matrix(0.008173828125000001,0,0,0.008173828125000001,33.406435546875,0)" xlink:href="#N"/><use transform="matrix(0.008173828125000001,0,0,0.008173828125000001,43.165986328125,0)" xlink:href="#W"/><use transform="matrix(0.008173828125000001,0,0,0.008173828125000001,49.7295703125,0)" xlink:href="#R"/><use transform="matrix(0.008173828125000001,0,0,0.008173828125000001,53.783789062500006,0)" xlink:href="#X"/><use transform="matrix(0.008173828125000001,0,0,0.008173828125000001,63.183691406250006,0)" xlink:href="#Y"/></g><g id="e"><use transform="matrix(0.008072916666666667,0,0,0.008072916666666667,0,0)" xlink:href="#O"/><use transform="matrix(0.008072916666666667,0,0,0.008072916666666667,5.408854166666667,0)" xlink:href="#R"/><use transform="matrix(0.008072916666666667,0,0,0.008072916666666667,9.413020833333334,0)" xlink:href="#O"/><use transform="matrix(0.008072916666666667,0,0,0.008072916666666667,14.821875000000002,0)" xlink:href="#Y"/><use transform="matrix(0.008072916666666667,0,0,0.008072916666666667,18.82604166666667,0)" xlink:href="#N"/></g><path d="M481 0L54-1118h197c107 314 236 620 325 951 87-331 217-637 324-951h197L670 0H481" id="Z"/><path d="M613 24c-304 0-509-231-509-576 0-350 205-580 509-580 216 0 392 114 453 309l-173 49c-33-115-133-197-280-197-223 0-326 196-326 419 0 220 103 415 326 415 150 0 252-85 285-206l172 49C1010-95 832 24 613 24" id="aa"/><path d="M338-670V0H158v-1490h180v566c73-149 190-208 336-208 226 0 379 139 379 422V0H872v-695c0-172-96-275-252-275-161 0-282 109-282 300" id="ab"/><path d="M218-607c0-325 108-727 258-974h175c-155 315-250 682-250 974 0 265 78 531 250 886H476C306-10 218-315 218-607" id="ac"/><path d="M154 0v-137l495-537c165-179 249-281 249-418 0-156-121-253-280-253-170 0-278 110-278 278H158c0-264 200-443 465-443 266 0 455 183 455 416 0 161-73 288-336 568L416-179v12h687V0H154" id="ad"/><path d="M626 20c-262 0-458-168-468-396h184c12 133 134 229 284 229 180 0 311-137 311-326 0-192-136-335-323-335-92 0-196 33-255 78l-178-22 88-738h784v167H429l-51 435h8c61-51 160-87 263-87 273 0 474 211 474 499 0 286-210 496-497 496" id="ae"/><path d="M96 279C273-86 346-350 346-607c0-292-95-659-250-974h175c150 246 258 650 258 974 0 297-91 602-258 886H96" id="af"/><g id="f"><use transform="matrix(0.008173828125000001,0,0,0.008173828125000001,0,0)" xlink:href="#Z"/><use transform="matrix(0.008173828125000001,0,0,0.008173828125000001,9.326337890625,0)" xlink:href="#X"/><use transform="matrix(0.008173828125000001,0,0,0.008173828125000001,18.726240234375002,0)" xlink:href="#W"/><use transform="matrix(0.008173828125000001,0,0,0.008173828125000001,24.7503515625,0)" xlink:href="#aa"/><use transform="matrix(0.008173828125000001,0,0,0.008173828125000001,34.31373046875,0)" xlink:href="#ab"/><use transform="matrix(0.008173828125000001,0,0,0.008173828125000001,44.212236328125,0)" xlink:href="#X"/><use transform="matrix(0.008173828125000001,0,0,0.008173828125000001,53.612138671875,0)" xlink:href="#W"/><use transform="matrix(0.008173828125000001,0,0,0.008173828125000001,59.914160156250006,0)" xlink:href="#ac"/><use transform="matrix(0.008173828125000001,0,0,0.008173828125000001,66.020009765625,0)" xlink:href="#ad"/><use transform="matrix(0.008173828125000001,0,0,0.008173828125000001,76.22912109375001,0)" xlink:href="#ae"/><use transform="matrix(0.008173828125000001,0,0,0.008173828125000001,86.40553710937502,0)" xlink:href="#ae"/><use transform="matrix(0.008173828125000001,0,0,0.008173828125000001,96.58195312500001,0)" xlink:href="#af"/></g><path d="M613 24c-304 0-509-231-509-576 0-350 205-580 509-580 305 0 511 230 511 580 0 345-206 576-511 576zm0-161c226 0 329-195 329-415 0-222-103-419-329-419-223 0-326 196-326 419 0 220 103 415 326 415" id="ag"/><path d="M338-670V0H158v-1118h173l1 207c72-158 192-221 342-221 226 0 378 139 378 422V0H872v-695c0-172-96-275-252-275-161 0-282 109-282 300" id="ah"/><g id="g"><use transform="matrix(0.008072916666666667,0,0,0.008072916666666667,0,0)" xlink:href="#V"/><use transform="matrix(0.008072916666666667,0,0,0.008072916666666667,8.726822916666668,0)" xlink:href="#N"/><use transform="matrix(0.008072916666666667,0,0,0.008072916666666667,18.36588541666667,0)" xlink:href="#Y"/><use transform="matrix(0.008072916666666667,0,0,0.008072916666666667,22.370052083333338,0)" xlink:href="#N"/><use transform="matrix(0.008072916666666667,0,0,0.008072916666666667,32.00911458333334,0)" xlink:href="#aa"/><use transform="matrix(0.008072916666666667,0,0,0.008072916666666667,41.45442708333334,0)" xlink:href="#O"/><use transform="matrix(0.008072916666666667,0,0,0.008072916666666667,46.86328125000001,0)" xlink:href="#R"/><use transform="matrix(0.008072916666666667,0,0,0.008072916666666667,50.86744791666668,0)" xlink:href="#ag"/><use transform="matrix(0.008072916666666667,0,0,0.008072916666666667,60.780989583333344,0)" xlink:href="#ah"/></g><path d="M158 0v-1490h180v865h22l478-493h223L593-638 1096 0H865L456-523 338-412V0H158" id="ai"/><g id="h"><use transform="matrix(0.008072916666666667,0,0,0.008072916666666667,0,0)" xlink:href="#V"/><use transform="matrix(0.008072916666666667,0,0,0.008072916666666667,8.726822916666668,0)" xlink:href="#O"/><use transform="matrix(0.008072916666666667,0,0,0.008072916666666667,14.216406250000002,0)" xlink:href="#X"/><use transform="matrix(0.008072916666666667,0,0,0.008072916666666667,23.50026041666667,0)" xlink:href="#ai"/><use transform="matrix(0.008072916666666667,0,0,0.008072916666666667,32.20286458333334,0)" xlink:href="#N"/></g><path d="M158 0v-1118h175l1 205c55-151 181-225 313-225 147 0 245 90 285 228 53-141 190-228 352-228 194 0 352 125 352 384V0h-181v-749c0-161-105-225-225-225-151 0-243 103-243 244V0H807v-767c0-124-93-207-219-207-131 0-250 92-250 270V0H158" id="aj"/><path d="M633 20c-303 0-511-173-511-416 0-188 124-348 291-378v-8c-145-37-237-174-237-332 0-227 192-396 457-396 261 0 456 169 456 396 0 158-94 295-235 332v8c162 30 291 190 291 378 0 243-212 416-512 416zm0-165c197 0 322-103 322-261 0-165-138-283-322-283-188 0-324 118-324 283 0 158 123 261 324 261zm0-703c157 0 272-101 272-252 0-149-110-246-272-246-165 0-273 97-273 246 0 151 112 252 273 252" id="ak"/><path d="M128 359l88-567h206L266 359H128" id="al"/><g id="i"><use transform="matrix(0.008173828125000001,0,0,0.008173828125000001,0,0)" xlink:href="#S"/><use transform="matrix(0.008173828125000001,0,0,0.008173828125000001,10.249980468750001,0)" xlink:href="#N"/><use transform="matrix(0.008173828125000001,0,0,0.008173828125000001,20.009531250000002,0)" xlink:href="#aa"/><use transform="matrix(0.008173828125000001,0,0,0.008173828125000001,29.572910156250003,0)" xlink:href="#R"/><use transform="matrix(0.008173828125000001,0,0,0.008173828125000001,33.62712890625001,0)" xlink:href="#aj"/><use transform="matrix(0.008173828125000001,0,0,0.008173828125000001,48.290976562500006,0)" xlink:href="#X"/><use transform="matrix(0.008173828125000001,0,0,0.008173828125000001,57.690878906250006,0)" xlink:href="#Y"/><use transform="matrix(0.008173828125000001,0,0,0.008173828125000001,61.74509765625001,0)" xlink:href="#ac"/><use transform="matrix(0.008173828125000001,0,0,0.008173828125000001,67.85094726562501,0)" xlink:href="#ak"/><use transform="matrix(0.008173828125000001,0,0,0.008173828125000001,77.83119140625001,0)" xlink:href="#al"/><use transform="matrix(0.008173828125000001,0,0,0.008173828125000001,82.65375000000002,0)" xlink:href="#ad"/><use transform="matrix(0.008173828125000001,0,0,0.008173828125000001,92.86286132812502,0)" xlink:href="#af"/></g><path d="M934 0v166H0V0h934" id="am"/><path d="M140 405l46-156c120 36 205 19 263-150l32-93L54-1118h197c107 313 237 620 324 950 87-331 219-637 326-950h196L606 167c-68 178-176 259-334 259-64 0-113-12-132-21" id="an"/><path d="M158 418v-1536h174v179h20c37-59 106-193 324-193 279 0 474 222 474 576 0 356-194 580-473 580-213 0-288-135-325-197h-14v591H158zm492-555c209 0 317-186 317-421 0-232-105-413-317-413-206 0-314 166-314 413 0 249 111 421 314 421" id="ao"/><g id="j"><use transform="matrix(0.008072916666666667,0,0,0.008072916666666667,0,0)" xlink:href="#V"/><use transform="matrix(0.008072916666666667,0,0,0.008072916666666667,8.726822916666668,0)" xlink:href="#O"/><use transform="matrix(0.008072916666666667,0,0,0.008072916666666667,14.216406250000002,0)" xlink:href="#X"/><use transform="matrix(0.008072916666666667,0,0,0.008072916666666667,23.50026041666667,0)" xlink:href="#ai"/><use transform="matrix(0.008072916666666667,0,0,0.008072916666666667,32.20286458333334,0)" xlink:href="#N"/><use transform="matrix(0.008072916666666667,0,0,0.008072916666666667,41.84192708333334,0)" xlink:href="#am"/><use transform="matrix(0.008072916666666667,0,0,0.008072916666666667,49.382031250000004,0)" xlink:href="#O"/><use transform="matrix(0.008072916666666667,0,0,0.008072916666666667,55.11380208333333,0)" xlink:href="#an"/><use transform="matrix(0.008072916666666667,0,0,0.008072916666666667,64.40572916666667,0)" xlink:href="#ao"/><use transform="matrix(0.008072916666666667,0,0,0.008072916666666667,74.52916666666667,0)" xlink:href="#N"/></g><path d="M537 14c-226 0-379-139-379-422v-710h180v695c0 172 97 275 253 275 160 0 281-109 281-300v-670h181V0H879v-209C806-46 684 14 537 14" id="ap"/><g id="k"><use transform="matrix(0.008173828125000001,0,0,0.008173828125000001,0,0)" xlink:href="#N"/><use transform="matrix(0.008173828125000001,0,0,0.008173828125000001,9.75955078125,0)" xlink:href="#ah"/><use transform="matrix(0.008173828125000001,0,0,0.008173828125000001,19.649882812500003,0)" xlink:href="#ap"/><use transform="matrix(0.008173828125000001,0,0,0.008173828125000001,29.548388671875003,0)" xlink:href="#aj"/></g><g id="l"><use transform="matrix(0.008072916666666667,0,0,0.008072916666666667,0,0)" xlink:href="#ag"/><use transform="matrix(0.008072916666666667,0,0,0.008072916666666667,9.913541666666667,0)" xlink:href="#S"/><use transform="matrix(0.008072916666666667,0,0,0.008072916666666667,20.03697916666667,0)" xlink:href="#S"/><use transform="matrix(0.008072916666666667,0,0,0.008072916666666667,30.16041666666667,0)" xlink:href="#V"/></g><g id="m"><use transform="matrix(0.008072916666666667,0,0,0.008072916666666667,0,0)" xlink:href="#aa"/><use transform="matrix(0.008072916666666667,0,0,0.008072916666666667,9.606770833333336,0)" xlink:href="#X"/><use transform="matrix(0.008072916666666667,0,0,0.008072916666666667,18.890625000000004,0)" xlink:href="#V"/><use transform="matrix(0.008072916666666667,0,0,0.008072916666666667,27.61744791666667,0)" xlink:href="#ab"/><use transform="matrix(0.008072916666666667,0,0,0.008072916666666667,37.393750000000004,0)" xlink:href="#ag"/><use transform="matrix(0.008072916666666667,0,0,0.008072916666666667,47.30729166666667,0)" xlink:href="#ap"/><use transform="matrix(0.008072916666666667,0,0,0.008072916666666667,57.083593750000006,0)" xlink:href="#O"/></g><g id="n"><use transform="matrix(0.008072916666666667,0,0,0.008072916666666667,0,0)" xlink:href="#V"/><use transform="matrix(0.008072916666666667,0,0,0.008072916666666667,8.726822916666668,0)" xlink:href="#O"/><use transform="matrix(0.008072916666666667,0,0,0.008072916666666667,14.216406250000002,0)" xlink:href="#X"/><use transform="matrix(0.008072916666666667,0,0,0.008072916666666667,23.50026041666667,0)" xlink:href="#O"/><use transform="matrix(0.008072916666666667,0,0,0.008072916666666667,28.909114583333338,0)" xlink:href="#ap"/><use transform="matrix(0.008072916666666667,0,0,0.008072916666666667,38.68541666666667,0)" xlink:href="#V"/></g><g id="o"><use transform="matrix(0.008072916666666667,0,0,0.008072916666666667,0,0)" xlink:href="#N"/><use transform="matrix(0.008072916666666667,0,0,0.008072916666666667,9.316145833333335,0)" xlink:href="#Z"/><use transform="matrix(0.008072916666666667,0,0,0.008072916666666667,18.285156250000004,0)" xlink:href="#N"/><use transform="matrix(0.008072916666666667,0,0,0.008072916666666667,27.924218750000005,0)" xlink:href="#ah"/><use transform="matrix(0.008072916666666667,0,0,0.008072916666666667,37.69244791666667,0)" xlink:href="#O"/><use transform="matrix(0.008072916666666667,0,0,0.008072916666666667,43.10130208333334,0)" xlink:href="#am"/><use transform="matrix(0.008072916666666667,0,0,0.008072916666666667,50.64140625,0)" xlink:href="#S"/><use transform="matrix(0.008072916666666667,0,0,0.008072916666666667,60.764843750000004,0)" xlink:href="#X"/><use transform="matrix(0.008072916666666667,0,0,0.008072916666666667,70.04869791666667,0)" xlink:href="#O"/><use transform="matrix(0.008072916666666667,0,0,0.008072916666666667,75.29609375000001,0)" xlink:href="#N"/></g><g id="p"><use transform="matrix(0.008173828125000001,0,0,0.008173828125000001,0,0)" xlink:href="#O"/><use transform="matrix(0.008173828125000001,0,0,0.008173828125000001,5.4764648437500005,0)" xlink:href="#R"/><use transform="matrix(0.008173828125000001,0,0,0.008173828125000001,9.530683593750002,0)" xlink:href="#aj"/><use transform="matrix(0.008173828125000001,0,0,0.008173828125000001,24.194531250000004,0)" xlink:href="#N"/><use transform="matrix(0.008173828125000001,0,0,0.008173828125000001,33.95408203125,0)" xlink:href="#V"/><use transform="matrix(0.008173828125000001,0,0,0.008173828125000001,42.789990234375004,0)" xlink:href="#O"/><use transform="matrix(0.008173828125000001,0,0,0.008173828125000001,48.348193359375,0)" xlink:href="#X"/><use transform="matrix(0.008173828125000001,0,0,0.008173828125000001,57.748095703125,0)" xlink:href="#aj"/><use transform="matrix(0.008173828125000001,0,0,0.008173828125000001,72.411943359375,0)" xlink:href="#ao"/></g><path d="M180 0v-1490h901v168H370v510h643v168H370V0H180" id="aq"/><g id="q"><use transform="matrix(0.008173828125000001,0,0,0.008173828125000001,0,0)" xlink:href="#aq"/><use transform="matrix(0.008173828125000001,0,0,0.008173828125000001,9.882158203125002,0)" xlink:href="#Q"/></g><g id="r"><use transform="matrix(0.008072916666666667,0,0,0.008072916666666667,0,0)" xlink:href="#T"/><use transform="matrix(0.008072916666666667,0,0,0.008072916666666667,10.123437500000001,0)" xlink:href="#N"/><use transform="matrix(0.008072916666666667,0,0,0.008072916666666667,19.762500000000003,0)" xlink:href="#O"/><use transform="matrix(0.008072916666666667,0,0,0.008072916666666667,24.76770833333334,0)" xlink:href="#O"/><use transform="matrix(0.008072916666666667,0,0,0.008072916666666667,30.015104166666674,0)" xlink:href="#ag"/><use transform="matrix(0.008072916666666667,0,0,0.008072916666666667,39.92864583333334,0)" xlink:href="#W"/><use transform="matrix(0.008072916666666667,0,0,0.008072916666666667,46.15286458333334,0)" xlink:href="#am"/><use transform="matrix(0.008072916666666667,0,0,0.008072916666666667,54.25000000000001,0)" xlink:href="#R"/><use transform="matrix(0.008072916666666667,0,0,0.008072916666666667,58.25416666666668,0)" xlink:href="#S"/></g><g id="s"><use transform="matrix(0.008173828125000001,0,0,0.008173828125000001,0,0)" xlink:href="#T"/><use transform="matrix(0.008173828125000001,0,0,0.008173828125000001,10.249980468750001,0)" xlink:href="#R"/><use transform="matrix(0.008173828125000001,0,0,0.008173828125000001,14.304199218750002,0)" xlink:href="#U"/><use transform="matrix(0.008173828125000001,0,0,0.008173828125000001,24.570527343750005,0)" xlink:href="#R"/><use transform="matrix(0.008173828125000001,0,0,0.008173828125000001,28.624746093750005,0)" xlink:href="#ah"/><use transform="matrix(0.008173828125000001,0,0,0.008173828125000001,38.515078125,0)" xlink:href="#O"/></g><g id="t"><use transform="matrix(0.008072916666666667,0,0,0.008072916666666667,0,0)" xlink:href="#T"/><use transform="matrix(0.008072916666666667,0,0,0.008072916666666667,10.123437500000001,0)" xlink:href="#ag"/><use transform="matrix(0.008072916666666667,0,0,0.008072916666666667,20.03697916666667,0)" xlink:href="#ag"/><use transform="matrix(0.008072916666666667,0,0,0.008072916666666667,29.950520833333336,0)" xlink:href="#ai"/><use transform="matrix(0.008072916666666667,0,0,0.008072916666666667,39.024479166666666,0)" xlink:href="#aj"/><use transform="matrix(0.008072916666666667,0,0,0.008072916666666667,53.50729166666667,0)" xlink:href="#X"/><use transform="matrix(0.008072916666666667,0,0,0.008072916666666667,62.79114583333333,0)" xlink:href="#ai"/><use transform="matrix(0.008072916666666667,0,0,0.008072916666666667,71.49374999999999,0)" xlink:href="#N"/><use transform="matrix(0.008072916666666667,0,0,0.008072916666666667,81.1328125,0)" xlink:href="#W"/><use transform="matrix(0.008072916666666667,0,0,0.008072916666666667,87.35703125,0)" xlink:href="#am"/><use transform="matrix(0.008072916666666667,0,0,0.008072916666666667,95.45416666666667,0)" xlink:href="#R"/><use transform="matrix(0.008072916666666667,0,0,0.008072916666666667,99.45833333333333,0)" xlink:href="#S"/></g><g id="u"><use transform="matrix(0.008072916666666667,0,0,0.008072916666666667,0,0)" xlink:href="#V"/><use transform="matrix(0.008072916666666667,0,0,0.008072916666666667,8.726822916666668,0)" xlink:href="#ao"/><use transform="matrix(0.008072916666666667,0,0,0.008072916666666667,18.85026041666667,0)" xlink:href="#ag"/><use transform="matrix(0.008072916666666667,0,0,0.008072916666666667,28.76380208333334,0)" xlink:href="#W"/><use transform="matrix(0.008072916666666667,0,0,0.008072916666666667,35.24635416666667,0)" xlink:href="#O"/><use transform="matrix(0.008072916666666667,0,0,0.008072916666666667,40.655208333333334,0)" xlink:href="#am"/><use transform="matrix(0.008072916666666667,0,0,0.008072916666666667,48.75234375,0)" xlink:href="#R"/><use transform="matrix(0.008072916666666667,0,0,0.008072916666666667,52.75651041666667,0)" xlink:href="#S"/></g><g id="v"><use transform="matrix(0.008072916666666667,0,0,0.008072916666666667,0,0)" xlink:href="#aa"/><use transform="matrix(0.008072916666666667,0,0,0.008072916666666667,9.445312500000002,0)" xlink:href="#ag"/><use transform="matrix(0.008072916666666667,0,0,0.008072916666666667,19.358854166666667,0)" xlink:href="#aj"/><use transform="matrix(0.008072916666666667,0,0,0.008072916666666667,33.84166666666667,0)" xlink:href="#ao"/><use transform="matrix(0.008072916666666667,0,0,0.008072916666666667,43.96510416666667,0)" xlink:href="#N"/><use transform="matrix(0.008072916666666667,0,0,0.008072916666666667,53.60416666666667,0)" xlink:href="#O"/><use transform="matrix(0.008072916666666667,0,0,0.008072916666666667,59.013020833333336,0)" xlink:href="#R"/><use transform="matrix(0.008072916666666667,0,0,0.008072916666666667,63.017187500000006,0)" xlink:href="#O"/><use transform="matrix(0.008072916666666667,0,0,0.008072916666666667,68.42604166666668,0)" xlink:href="#R"/><use transform="matrix(0.008072916666666667,0,0,0.008072916666666667,72.43020833333334,0)" xlink:href="#ag"/><use transform="matrix(0.008072916666666667,0,0,0.008072916666666667,82.34375,0)" xlink:href="#ah"/><use transform="matrix(0.008072916666666667,0,0,0.008072916666666667,92.11197916666667,0)" xlink:href="#am"/><use transform="matrix(0.008072916666666667,0,0,0.008072916666666667,100.20911458333333,0)" xlink:href="#R"/><use transform="matrix(0.008072916666666667,0,0,0.008072916666666667,104.21328125,0)" xlink:href="#S"/></g><g id="w"><use transform="matrix(0.008072916666666667,0,0,0.008072916666666667,0,0)" xlink:href="#O"/><use transform="matrix(0.008072916666666667,0,0,0.008072916666666667,5.408854166666667,0)" xlink:href="#R"/><use transform="matrix(0.008072916666666667,0,0,0.008072916666666667,9.413020833333334,0)" xlink:href="#ao"/><use transform="matrix(0.008072916666666667,0,0,0.008072916666666667,19.536458333333336,0)" xlink:href="#V"/><use transform="matrix(0.008072916666666667,0,0,0.008072916666666667,28.263281250000006,0)" xlink:href="#O"/><use transform="matrix(0.008072916666666667,0,0,0.008072916666666667,33.51067708333334,0)" xlink:href="#N"/><use transform="matrix(0.008072916666666667,0,0,0.008072916666666667,43.14973958333334,0)" xlink:href="#W"/><use transform="matrix(0.008072916666666667,0,0,0.008072916666666667,49.37395833333334,0)" xlink:href="#am"/><use transform="matrix(0.008072916666666667,0,0,0.008072916666666667,57.47109375000001,0)" xlink:href="#R"/><use transform="matrix(0.008072916666666667,0,0,0.008072916666666667,61.47526041666668,0)" xlink:href="#S"/></g><g id="x"><use transform="matrix(0.008072916666666667,0,0,0.008072916666666667,0,0)" xlink:href="#M"/><use transform="matrix(0.008072916666666667,0,0,0.008072916666666667,10.817708333333334,0)" xlink:href="#N"/><use transform="matrix(0.008072916666666667,0,0,0.008072916666666667,20.456770833333337,0)" xlink:href="#O"/><use transform="matrix(0.008072916666666667,0,0,0.008072916666666667,25.461979166666673,0)" xlink:href="#O"/><use transform="matrix(0.008072916666666667,0,0,0.008072916666666667,30.70937500000001,0)" xlink:href="#ag"/><use transform="matrix(0.008072916666666667,0,0,0.008072916666666667,40.622916666666676,0)" xlink:href="#W"/></g><g id="y"><use transform="matrix(0.008072916666666667,0,0,0.008072916666666667,0,0)" xlink:href="#ah"/><use transform="matrix(0.008072916666666667,0,0,0.008072916666666667,9.768229166666668,0)" xlink:href="#X"/><use transform="matrix(0.008072916666666667,0,0,0.008072916666666667,19.052083333333336,0)" xlink:href="#aj"/><use transform="matrix(0.008072916666666667,0,0,0.008072916666666667,33.53489583333334,0)" xlink:href="#N"/></g><path d="M763 24c-353 0-583-224-583-531v-983h190v968c0 214 149 370 393 370 243 0 391-156 391-370v-968h190v983c0 307-230 531-581 531" id="ar"/><g id="z"><use transform="matrix(0.008173828125000001,0,0,0.008173828125000001,0,0)" xlink:href="#ar"/><use transform="matrix(0.008173828125000001,0,0,0.008173828125000001,12.456914062500001,0)" xlink:href="#Q"/></g><g id="A"><use transform="matrix(0.008072916666666667,0,0,0.008072916666666667,0,0)" xlink:href="#N"/><use transform="matrix(0.008072916666666667,0,0,0.008072916666666667,9.639062500000001,0)" xlink:href="#aj"/><use transform="matrix(0.008072916666666667,0,0,0.008072916666666667,24.121875000000003,0)" xlink:href="#X"/><use transform="matrix(0.008072916666666667,0,0,0.008072916666666667,33.405729166666674,0)" xlink:href="#R"/><use transform="matrix(0.008072916666666667,0,0,0.008072916666666667,37.409895833333344,0)" xlink:href="#Y"/></g><path d="M409 0L70-1118h191c89 329 165 560 243 925 75-353 154-601 240-925h192c85 325 161 564 235 922 77-354 157-598 244-922h191L1267 0h-179c-86-307-176-590-250-913C763-588 675-308 588 0H409" id="as"/><g id="B"><use transform="matrix(0.008072916666666667,0,0,0.008072916666666667,0,0)" xlink:href="#ao"/><use transform="matrix(0.008072916666666667,0,0,0.008072916666666667,10.284895833333335,0)" xlink:href="#X"/><use transform="matrix(0.008072916666666667,0,0,0.008072916666666667,19.56875,0)" xlink:href="#V"/><use transform="matrix(0.008072916666666667,0,0,0.008072916666666667,28.29557291666667,0)" xlink:href="#V"/><use transform="matrix(0.008072916666666667,0,0,0.008072916666666667,37.02239583333334,0)" xlink:href="#as"/><use transform="matrix(0.008072916666666667,0,0,0.008072916666666667,50.25390625000001,0)" xlink:href="#ag"/><use transform="matrix(0.008072916666666667,0,0,0.008072916666666667,60.167447916666674,0)" xlink:href="#W"/><use transform="matrix(0.008072916666666667,0,0,0.008072916666666667,66.11718750000001,0)" xlink:href="#S"/></g><g id="C"><use transform="matrix(0.008072916666666667,0,0,0.008072916666666667,0,0)" xlink:href="#ap"/><use transform="matrix(0.008072916666666667,0,0,0.008072916666666667,9.776302083333334,0)" xlink:href="#ah"/><use transform="matrix(0.008072916666666667,0,0,0.008072916666666667,19.544531250000002,0)" xlink:href="#R"/><use transform="matrix(0.008072916666666667,0,0,0.008072916666666667,23.54869791666667,0)" xlink:href="#O"/><use transform="matrix(0.008072916666666667,0,0,0.008072916666666667,28.957552083333336,0)" xlink:href="#am"/><use transform="matrix(0.008072916666666667,0,0,0.008072916666666667,35.18984375,0)" xlink:href="#Z"/><use transform="matrix(0.008072916666666667,0,0,0.008072916666666667,44.40104166666667,0)" xlink:href="#X"/><use transform="matrix(0.008072916666666667,0,0,0.008072916666666667,53.68489583333334,0)" xlink:href="#Y"/><use transform="matrix(0.008072916666666667,0,0,0.008072916666666667,57.68906250000001,0)" xlink:href="#ap"/><use transform="matrix(0.008072916666666667,0,0,0.008072916666666667,67.46536458333335,0)" xlink:href="#N"/></g><g id="D"><use transform="matrix(0.008072916666666667,0,0,0.008072916666666667,0,0)" xlink:href="#O"/><use transform="matrix(0.008072916666666667,0,0,0.008072916666666667,5.731770833333334,0)" xlink:href="#an"/><use transform="matrix(0.008072916666666667,0,0,0.008072916666666667,15.023697916666668,0)" xlink:href="#ao"/><use transform="matrix(0.008072916666666667,0,0,0.008072916666666667,25.14713541666667,0)" xlink:href="#N"/></g><g id="E"><use transform="matrix(0.008072916666666667,0,0,0.008072916666666667,0,0)" xlink:href="#aa"/><use transform="matrix(0.008072916666666667,0,0,0.008072916666666667,9.445312500000002,0)" xlink:href="#W"/><use transform="matrix(0.008072916666666667,0,0,0.008072916666666667,15.395052083333335,0)" xlink:href="#N"/><use transform="matrix(0.008072916666666667,0,0,0.008072916666666667,25.19557291666667,0)" xlink:href="#X"/><use transform="matrix(0.008072916666666667,0,0,0.008072916666666667,34.479427083333334,0)" xlink:href="#O"/><use transform="matrix(0.008072916666666667,0,0,0.008072916666666667,39.72682291666666,0)" xlink:href="#N"/><use transform="matrix(0.008072916666666667,0,0,0.008072916666666667,49.365885416666664,0)" xlink:href="#S"/><use transform="matrix(0.008072916666666667,0,0,0.008072916666666667,59.489322916666666,0)" xlink:href="#am"/><use transform="matrix(0.008072916666666667,0,0,0.008072916666666667,67.02942708333333,0)" xlink:href="#X"/><use transform="matrix(0.008072916666666667,0,0,0.008072916666666667,76.31328125,0)" xlink:href="#O"/></g><g id="F"><use transform="matrix(0.008072916666666667,0,0,0.008072916666666667,0,0)" xlink:href="#M"/><use transform="matrix(0.008072916666666667,0,0,0.008072916666666667,10.817708333333334,0)" xlink:href="#ag"/><use transform="matrix(0.008072916666666667,0,0,0.008072916666666667,20.731250000000003,0)" xlink:href="#ag"/><use transform="matrix(0.008072916666666667,0,0,0.008072916666666667,30.64479166666667,0)" xlink:href="#ai"/><use transform="matrix(0.008072916666666667,0,0,0.008072916666666667,39.71875,0)" xlink:href="#aj"/><use transform="matrix(0.008072916666666667,0,0,0.008072916666666667,54.2015625,0)" xlink:href="#X"/><use transform="matrix(0.008072916666666667,0,0,0.008072916666666667,63.485416666666666,0)" xlink:href="#ai"/><use transform="matrix(0.008072916666666667,0,0,0.008072916666666667,72.18802083333333,0)" xlink:href="#N"/><use transform="matrix(0.008072916666666667,0,0,0.008072916666666667,81.82708333333332,0)" xlink:href="#W"/></g><path d="M98-1322v-168h1126v168H757V0H567v-1322H98" id="at"/><g id="G"><use transform="matrix(0.008072916666666667,0,0,0.008072916666666667,0,0)" xlink:href="#at"/><use transform="matrix(0.008072916666666667,0,0,0.008072916666666667,10.672395833333335,0)" xlink:href="#R"/><use transform="matrix(0.008072916666666667,0,0,0.008072916666666667,14.676562500000003,0)" xlink:href="#ao"/><use transform="matrix(0.008072916666666667,0,0,0.008072916666666667,24.800000000000004,0)" xlink:href="#V"/><use transform="matrix(0.008072916666666667,0,0,0.008072916666666667,33.526822916666674,0)" xlink:href="#O"/><use transform="matrix(0.008072916666666667,0,0,0.008072916666666667,38.77421875,0)" xlink:href="#N"/><use transform="matrix(0.008072916666666667,0,0,0.008072916666666667,48.413281250000004,0)" xlink:href="#W"/></g><g id="H"><use transform="matrix(0.008173828125000001,0,0,0.008173828125000001,0,0)" xlink:href="#Z"/><use transform="matrix(0.008173828125000001,0,0,0.008173828125000001,9.326337890625,0)" xlink:href="#X"/><use transform="matrix(0.008173828125000001,0,0,0.008173828125000001,18.726240234375002,0)" xlink:href="#W"/><use transform="matrix(0.008173828125000001,0,0,0.008173828125000001,24.7503515625,0)" xlink:href="#aa"/><use transform="matrix(0.008173828125000001,0,0,0.008173828125000001,34.31373046875,0)" xlink:href="#ab"/><use transform="matrix(0.008173828125000001,0,0,0.008173828125000001,44.212236328125,0)" xlink:href="#X"/><use transform="matrix(0.008173828125000001,0,0,0.008173828125000001,53.612138671875,0)" xlink:href="#W"/></g><path d="M783 20c-382 0-661-292-661-764 0-473 279-766 661-766 302 0 548 182 601 489h-190c-42-204-217-313-411-313-268 0-476 208-476 590 0 381 209 588 476 588 195 0 369-110 411-313h190c-52 303-296 489-601 489" id="au"/><g id="I"><use transform="matrix(0.008072916666666667,0,0,0.008072916666666667,0,0)" xlink:href="#au"/><use transform="matrix(0.008072916666666667,0,0,0.008072916666666667,12.077083333333334,0)" xlink:href="#ag"/><use transform="matrix(0.008072916666666667,0,0,0.008072916666666667,21.990625,0)" xlink:href="#aj"/><use transform="matrix(0.008072916666666667,0,0,0.008072916666666667,36.4734375,0)" xlink:href="#ao"/><use transform="matrix(0.008072916666666667,0,0,0.008072916666666667,46.596875000000004,0)" xlink:href="#N"/><use transform="matrix(0.008072916666666667,0,0,0.008072916666666667,56.235937500000006,0)" xlink:href="#O"/><use transform="matrix(0.008072916666666667,0,0,0.008072916666666667,61.64479166666667,0)" xlink:href="#R"/><use transform="matrix(0.008072916666666667,0,0,0.008072916666666667,65.64895833333334,0)" xlink:href="#O"/><use transform="matrix(0.008072916666666667,0,0,0.008072916666666667,71.05781250000001,0)" xlink:href="#R"/><use transform="matrix(0.008072916666666667,0,0,0.008072916666666667,75.06197916666667,0)" xlink:href="#ag"/><use transform="matrix(0.008072916666666667,0,0,0.008072916666666667,84.97552083333335,0)" xlink:href="#ah"/></g><path d="M657 26c-323 0-524-166-541-416h195c15 169 171 246 346 246 202 0 356-106 356-265 5-203-294-238-475-293-239-73-380-191-380-389 0-252 224-419 512-419 294 0 499 171 508 396H992c-17-145-151-228-328-228-193 0-321 102-321 242 0 156 175 211 284 241l149 41c160 44 422 134 422 412 0 244-197 432-541 432" id="av"/><g id="J"><use transform="matrix(0.008072916666666667,0,0,0.008072916666666667,0,0)" xlink:href="#av"/><use transform="matrix(0.008072916666666667,0,0,0.008072916666666667,10.607812500000001,0)" xlink:href="#ao"/><use transform="matrix(0.008072916666666667,0,0,0.008072916666666667,20.731250000000003,0)" xlink:href="#ag"/><use transform="matrix(0.008072916666666667,0,0,0.008072916666666667,30.64479166666667,0)" xlink:href="#W"/><use transform="matrix(0.008072916666666667,0,0,0.008072916666666667,37.12734375,0)" xlink:href="#O"/></g><g id="K"><use transform="matrix(0.008072916666666667,0,0,0.008072916666666667,0,0)" xlink:href="#at"/><use transform="matrix(0.008072916666666667,0,0,0.008072916666666667,9.735937500000002,0)" xlink:href="#W"/><use transform="matrix(0.008072916666666667,0,0,0.008072916666666667,15.960156250000002,0)" xlink:href="#X"/><use transform="matrix(0.008072916666666667,0,0,0.008072916666666667,25.24401041666667,0)" xlink:href="#ah"/><use transform="matrix(0.008072916666666667,0,0,0.008072916666666667,35.01223958333334,0)" xlink:href="#V"/><use transform="matrix(0.008072916666666667,0,0,0.008072916666666667,43.73906250000001,0)" xlink:href="#X"/><use transform="matrix(0.008072916666666667,0,0,0.008072916666666667,53.022916666666674,0)" xlink:href="#aa"/><use transform="matrix(0.008072916666666667,0,0,0.008072916666666667,62.468229166666674,0)" xlink:href="#O"/><use transform="matrix(0.008072916666666667,0,0,0.008072916666666667,67.87708333333335,0)" xlink:href="#R"/><use transform="matrix(0.008072916666666667,0,0,0.008072916666666667,71.88125000000001,0)" xlink:href="#ag"/><use transform="matrix(0.008072916666666667,0,0,0.008072916666666667,81.79479166666667,0)" xlink:href="#ah"/></g><g id="L"><use transform="matrix(0.008072916666666667,0,0,0.008072916666666667,0,0)" xlink:href="#X"/><use transform="matrix(0.008072916666666667,0,0,0.008072916666666667,9.283854166666668,0)" xlink:href="#aj"/><use transform="matrix(0.008072916666666667,0,0,0.008072916666666667,23.76666666666667,0)" xlink:href="#ag"/><use transform="matrix(0.008072916666666667,0,0,0.008072916666666667,33.68020833333334,0)" xlink:href="#ap"/><use transform="matrix(0.008072916666666667,0,0,0.008072916666666667,43.456510416666674,0)" xlink:href="#ah"/><use transform="matrix(0.008072916666666667,0,0,0.008072916666666667,53.224739583333346,0)" xlink:href="#O"/></g></defs></g></svg>